# xmcd CD database file
#
# Track frame offsets:
#	150
#	15262
#	36862
#	62887
#	80887
#	94837
#	111637
#	133462
#	156037
#	177862
#
# Disc length: 2513 seconds
#
# Revision: 0
# Processed by: cddbd v1.5.2PL0 Copyright (c) Steve Scherf et al.
# Submitted via: CDex 1.70beta2
#
DISCID=8909cf0a
DTITLE=Hampton Hawes - Hampton Hawes Vol. 1: The Trio
DYEAR=1955
DGENRE=Jazz
TTITLE0=I Got Rhythm
TTITLE1=What Is This Thing Called Love
TTITLE2=Blues The Most
TTITLE3=So In Love
TTITLE4=Feelin' Fine
TTITLE5=Hamp's Blues
TTITLE6=Easy Living
TTITLE7=All The Things You Are
TTITLE8=These Foolish Things
TTITLE9=Carioca
EXTD=YEAR: 1955
EXTT0=
EXTT1=
EXTT2=
EXTT3=
EXTT4=
EXTT5=
EXTT6=
EXTT7=
EXTT8=
EXTT9=
PLAYORDER=
